<?xml version="1.0" encoding="utf-8"?>
<!-- Generator: Adobe Illustrator 27.3.1, SVG Export Plug-In . SVG Version: 6.00 Build 0)  -->
<svg version="1.1" id="Capa_1" xmlns="http://www.w3.org/2000/svg" xmlns:xlink="http://www.w3.org/1999/xlink" x="0px" y="0px"
	 viewBox="0 0 852.86 297.9" style="enable-background:new 0 0 852.86 297.9;" xml:space="preserve">
<style type="text/css">
	.st0{fill:url(#SVGID_1_);}
	.st1{opacity:0.1;fill:url(#SVGID_00000088834685176152781230000003651111663727168431_);}
	.st2{fill:url(#SVGID_00000013884918660422329140000007687433568619887018_);}
	.st3{opacity:0.1;fill:url(#SVGID_00000089541696869668934510000000254066564778598562_);}
	.st4{fill:#FFFFFF;}
	.st5{fill:#F2F2F2;}
	.st6{fill:url(#SVGID_00000052098869106160005090000007739312148689929355_);}
	.st7{opacity:0.1;fill:url(#SVGID_00000008137239107261821160000013845029757202378653_);}
	.st8{fill:#FFFFFF;stroke:#E6E6E6;stroke-width:0.5;stroke-miterlimit:10;}
	.st9{fill:#3ACE4C;}
	.st10{fill:none;stroke:#FFFFFF;stroke-width:3;stroke-miterlimit:10;}
</style>
<g>
	<path class="st4" d="M3.61,286.38h9.85v-15.03c1.34,0.07,2.17,0.07,2.95,0.07c12.03,0,18.49-4.81,18.49-13.76
		c0-4.67-1.92-8.56-5.32-11c-3.13-2.24-7.04-3.14-13.68-3.14c-3.59,0-6.79,0.13-12.28,0.51V286.38z M13.34,251.65
		c1.72-0.12,2.68-0.2,3.7-0.2c5.32,0,7.81,1.99,7.81,6.09c0,4.28-2.55,5.93-9.09,5.93c-0.89,0-1.41,0-2.42-0.06V251.65z"/>
	<path class="st4" d="M69.11,242.88c-13.24,0-21.74,8.89-21.74,22.71c0,13.45,8.12,21.76,21.29,21.76
		c13.24,0,21.57-8.71,21.57-22.53C90.23,251.32,82.09,242.88,69.11,242.88 M69.05,251.09c6.65,0,10.6,5.17,10.6,13.98
		c0,8.84-4.02,14.03-10.86,14.03c-6.78,0-10.87-5.19-10.87-13.76C57.92,256.31,62.01,251.09,69.05,251.09z"/>
	<path class="st4" d="M104.79,243.71v24.9c0,6.64,1.03,10.35,3.64,13.29c3.07,3.46,7.92,5.18,14.51,5.18
		c6.53,0,11.45-1.78,14.47-5.18c2.63-3.01,3.65-6.65,3.65-13.29v-24.9h-9.86v24.05c0,4.23-0.26,6.15-1.27,7.68
		c-1.34,2.04-3.9,3.2-6.99,3.2c-2.74,0-4.92-0.83-6.38-2.44c-1.48-1.67-1.92-3.58-1.92-8.45v-24.05H104.79z"/>
	<polygon class="st4" points="157.31,286.38 184.95,286.38 184.95,277.56 167.16,277.56 167.16,243.71 157.31,243.71 	"/>
	<polygon class="st4" points="209.31,286.38 219.21,286.38 219.21,252.29 232.65,252.29 232.65,243.84 195.8,243.84 195.8,252.29 
		209.31,252.29 	"/>
	<path class="st4" d="M246.25,286.38h9.65v-15.98c1.54,0.06,1.99,0.06,2.7,0.06h1.52c3.66,5.83,7.68,11.65,11.2,16.06h12.23
		c-0.27-0.27-0.46-0.52-0.52-0.58c-4.6-5.26-10.3-12.6-13.18-17.14c5.24-2.45,7.75-6.15,7.75-11.53c0-4.53-1.93-8.38-5.26-10.66
		c-3.13-2.19-7.04-3.09-13.49-3.09c-3.65,0-7.81,0.13-12.61,0.45V286.38z M255.91,251.4c2.24-0.12,2.7-0.12,3.9-0.12
		c5.19,0,7.81,1.97,7.81,5.87c0,4.11-2.56,5.7-9.01,5.7h-2.7V251.4z"/>
	<path class="st4" d="M291.93,243.71c6.59,11.4,9.53,16,16.7,26.23v16.43h9.84l0.07-16.51c6.72-9.14,11.25-16.04,17.46-26.16h-10.87
		c-3.59,6.09-7.42,12.04-11.26,17.4c-2.24-3.53-2.75-4.35-5-7.93c-1.85-3.07-2.31-3.78-3.63-6.15c-2.05-3.65-1.48-2.61-1.87-3.32
		H291.93z"/>
	<polygon class="st4" points="370.25,286.38 397.88,286.38 397.88,277.94 379.95,277.94 379.95,268.91 397.05,268.91 397.05,260.48 
		379.95,260.48 379.95,252.29 397.5,252.29 397.5,243.84 370.25,243.84 	"/>
	<path class="st4" d="M454.32,289.9c-1.26,0.12-1.78,0.12-2.86,0.12c-5.89,0-10.75-1.14-13.3-3.25
		c10.55-2.36,16.25-10.06,16.25-21.95c0-13.5-8.12-21.94-21.11-21.94c-13.23,0-21.75,8.89-21.75,22.65
		c0,11.15,5.25,18.56,15.03,21.11c6.41,8.13,12.42,11.26,21.64,11.26h1.2L454.32,289.9z M433.23,251.09
		c6.65,0,10.62,5.17,10.62,13.92c0,8.83-4.03,14.03-10.87,14.03c-6.78,0-10.88-5.19-10.88-13.76
		C422.09,256.26,426.19,251.09,433.23,251.09z"/>
	<path class="st4" d="M468.96,243.71v24.9c0,6.64,1.02,10.35,3.64,13.29c3.07,3.46,7.92,5.18,14.53,5.18
		c6.53,0,11.44-1.78,14.47-5.18c2.61-3.01,3.64-6.65,3.64-13.29v-24.9h-9.86v24.05c0,4.23-0.27,6.15-1.28,7.68
		c-1.35,2.04-3.9,3.2-6.97,3.2c-2.75,0-4.93-0.83-6.4-2.44c-1.47-1.67-1.92-3.58-1.92-8.45v-24.05H468.96z"/>
	<rect x="521.5" y="243.71" class="st4" width="9.85" height="42.66"/>
	<path class="st4" d="M548,286.38h9.87v-15.03c1.34,0.07,2.16,0.07,2.93,0.07c12.04,0,18.5-4.81,18.5-13.76
		c0-4.67-1.92-8.56-5.31-11c-3.14-2.24-7.04-3.14-13.68-3.14c-3.59,0-6.79,0.13-12.29,0.51V286.38z M557.74,251.65
		c1.72-0.12,2.67-0.2,3.71-0.2c5.29,0,7.78,1.99,7.78,6.09c0,4.28-2.54,5.93-9.07,5.93c-0.91,0-1.41,0-2.42-0.06V251.65z"/>
	<path class="st4" d="M601.1,286.38c0.31-6.71,0.46-10.24,0.83-18.22c0.45-7.99,0.59-11.89,0.59-15.05v-3.38
		c0.57,2.42,0.89,4.03,1.29,5.26c0.31,1.21,0.75,2.94,0.89,3.32l0.62,1.92l0.57,1.92l0.65,1.91c0.76,2.24,1.4,4.67,2.69,9.04
		c1.48,5,2.43,8.19,3.84,13.29h10.29c0.7-2.29,0.13-0.38,1.86-6.33l0.65-2.24c1.26-4.4,3.13-10.82,4.08-13.77
		c2.31-7.28,2.75-8.94,4.03-14.32v3.38c0,3.4,0.14,6.1,0.57,15.05c0.46,9.52,0.77,7.09,0.77,17.14v1.08h9.47
		c-0.2-4.48-0.25-5.62-0.37-7.8c-0.26-5.17-0.71-12.17-1.28-19.58c-0.26-2.75,0.14,0.45-0.91-10.24l-0.31-3.4l-0.07-0.58v-0.5
		l-0.07-0.58h-10.22c-3.59,0-3.72,0.12-7.36,11.27c-4.28,12.84-5.19,16.94-5.56,24.49c-0.25-5.32-0.77-8.64-1.98-13.12
		c-1.21-4.41-3.98-12.91-5.82-18.03c-1.46-3.96-2.18-4.6-5.06-4.6h-10.87l-0.07,0.58v0.5l-0.06,0.58l-0.32,3.4l-0.32,3.38l-0.26,3.4
		c-0.12,2.11-0.51,5.7-0.83,10.35c-0.57,7.69-0.7,10.57-1.15,20.48H601.1z"/>
	<polygon class="st4" points="659.85,286.38 687.48,286.38 687.48,277.94 669.58,277.94 669.58,268.91 686.66,268.91 686.66,260.48 
		669.58,260.48 669.58,252.29 687.1,252.29 687.1,243.84 659.85,243.84 	"/>
	<path class="st4" d="M702.87,286.38h9.02v-21.42c0-3.4-0.32-6.1-1.46-11.78c2.29,5.38,3.45,7.73,5.56,10.93l13.24,20.15
		c0.95,1.49,2.18,2.12,4.03,2.12h8.13v-42.66h-9.02v21.44c0,3.38,0.33,6.07,1.47,11.77c-2.3-5.38-3.46-7.75-5.56-10.94l-13.25-20.16
		c-0.96-1.47-2.18-2.11-3.97-2.11h-8.2V286.38z"/>
	<polygon class="st4" points="768.44,286.38 778.37,286.38 778.37,252.29 791.79,252.29 791.79,243.84 754.95,243.84 754.95,252.29 
		768.44,252.29 	"/>
	<path class="st4" d="M3.61,286.38h9.85v-15.03c1.34,0.07,2.17,0.07,2.95,0.07c12.03,0,18.49-4.81,18.49-13.76
		c0-4.67-1.92-8.56-5.32-11c-3.13-2.24-7.04-3.14-13.68-3.14c-3.59,0-6.79,0.13-12.28,0.51V286.38z M13.34,251.65
		c1.72-0.12,2.68-0.2,3.7-0.2c5.32,0,7.81,1.99,7.81,6.09c0,4.28-2.55,5.93-9.09,5.93c-0.89,0-1.41,0-2.42-0.06V251.65z"/>
	<path class="st4" d="M69.11,242.88c-13.24,0-21.74,8.89-21.74,22.71c0,13.45,8.12,21.76,21.29,21.76
		c13.24,0,21.57-8.71,21.57-22.53C90.23,251.32,82.09,242.88,69.11,242.88 M69.05,251.09c6.65,0,10.6,5.17,10.6,13.98
		c0,8.84-4.02,14.03-10.86,14.03c-6.78,0-10.87-5.19-10.87-13.76C57.92,256.31,62.01,251.09,69.05,251.09z"/>
	<path class="st4" d="M104.79,243.71v24.9c0,6.64,1.03,10.35,3.64,13.29c3.07,3.46,7.92,5.18,14.51,5.18
		c6.53,0,11.45-1.78,14.47-5.18c2.63-3.01,3.65-6.65,3.65-13.29v-24.9h-9.86v24.05c0,4.23-0.26,6.15-1.27,7.68
		c-1.34,2.04-3.9,3.2-6.99,3.2c-2.74,0-4.92-0.83-6.38-2.44c-1.48-1.67-1.92-3.58-1.92-8.45v-24.05H104.79z"/>
	<polygon class="st4" points="157.31,286.38 184.95,286.38 184.95,277.56 167.16,277.56 167.16,243.71 157.31,243.71 	"/>
	<polygon class="st4" points="209.31,286.38 219.21,286.38 219.21,252.29 232.65,252.29 232.65,243.84 195.8,243.84 195.8,252.29 
		209.31,252.29 	"/>
	<path class="st4" d="M246.25,286.38h9.65v-15.98c1.54,0.06,1.99,0.06,2.7,0.06h1.52c3.66,5.83,7.68,11.65,11.2,16.06h12.23
		c-0.27-0.27-0.46-0.52-0.52-0.58c-4.6-5.26-10.3-12.6-13.18-17.14c5.24-2.45,7.75-6.15,7.75-11.53c0-4.53-1.93-8.38-5.26-10.66
		c-3.13-2.19-7.04-3.09-13.49-3.09c-3.65,0-7.81,0.13-12.61,0.45V286.38z M255.91,251.4c2.24-0.12,2.7-0.12,3.9-0.12
		c5.19,0,7.81,1.97,7.81,5.87c0,4.11-2.56,5.7-9.01,5.7h-2.7V251.4z"/>
	<path class="st4" d="M291.93,243.71c6.59,11.4,9.53,16,16.7,26.23v16.43h9.84l0.07-16.51c6.72-9.14,11.25-16.04,17.46-26.16h-10.87
		c-3.59,6.09-7.42,12.04-11.26,17.4c-2.24-3.53-2.75-4.35-5-7.93c-1.85-3.07-2.31-3.78-3.63-6.15c-2.05-3.65-1.48-2.61-1.87-3.32
		H291.93z"/>
	<polygon class="st4" points="370.25,286.38 397.88,286.38 397.88,277.94 379.95,277.94 379.95,268.91 397.05,268.91 397.05,260.48 
		379.95,260.48 379.95,252.29 397.5,252.29 397.5,243.84 370.25,243.84 	"/>
	<path class="st4" d="M454.32,289.9c-1.26,0.12-1.78,0.12-2.86,0.12c-5.89,0-10.75-1.14-13.3-3.25
		c10.55-2.36,16.25-10.06,16.25-21.95c0-13.5-8.12-21.94-21.11-21.94c-13.23,0-21.75,8.89-21.75,22.65
		c0,11.15,5.25,18.56,15.03,21.11c6.41,8.13,12.42,11.26,21.64,11.26h1.2L454.32,289.9z M433.23,251.09
		c6.65,0,10.62,5.17,10.62,13.92c0,8.83-4.03,14.03-10.87,14.03c-6.78,0-10.88-5.19-10.88-13.76
		C422.09,256.26,426.19,251.09,433.23,251.09z"/>
	<path class="st4" d="M468.96,243.71v24.9c0,6.64,1.02,10.35,3.64,13.29c3.07,3.46,7.92,5.18,14.53,5.18
		c6.53,0,11.44-1.78,14.47-5.18c2.61-3.01,3.64-6.65,3.64-13.29v-24.9h-9.86v24.05c0,4.23-0.27,6.15-1.28,7.68
		c-1.35,2.04-3.9,3.2-6.97,3.2c-2.75,0-4.93-0.83-6.4-2.44c-1.47-1.67-1.92-3.58-1.92-8.45v-24.05H468.96z"/>
	<rect x="521.5" y="243.71" class="st4" width="9.85" height="42.66"/>
	<path class="st4" d="M548,286.38h9.87v-15.03c1.34,0.07,2.16,0.07,2.93,0.07c12.04,0,18.5-4.81,18.5-13.76
		c0-4.67-1.92-8.56-5.31-11c-3.14-2.24-7.04-3.14-13.68-3.14c-3.59,0-6.79,0.13-12.29,0.51V286.38z M557.74,251.65
		c1.72-0.12,2.67-0.2,3.71-0.2c5.29,0,7.78,1.99,7.78,6.09c0,4.28-2.54,5.93-9.07,5.93c-0.91,0-1.41,0-2.42-0.06V251.65z"/>
	<path class="st4" d="M601.1,286.38c0.31-6.71,0.46-10.24,0.83-18.22c0.45-7.99,0.59-11.89,0.59-15.05v-3.38
		c0.57,2.42,0.89,4.03,1.29,5.26c0.31,1.21,0.75,2.94,0.89,3.32l0.62,1.92l0.57,1.92l0.65,1.91c0.76,2.24,1.4,4.67,2.69,9.04
		c1.48,5,2.43,8.19,3.84,13.29h10.29c0.7-2.29,0.13-0.38,1.86-6.33l0.65-2.24c1.26-4.4,3.13-10.82,4.08-13.77
		c2.31-7.28,2.75-8.94,4.03-14.32v3.38c0,3.4,0.14,6.1,0.57,15.05c0.46,9.52,0.77,7.09,0.77,17.14v1.08h9.47
		c-0.2-4.48-0.25-5.62-0.37-7.8c-0.26-5.17-0.71-12.17-1.28-19.58c-0.26-2.75,0.14,0.45-0.91-10.24l-0.31-3.4l-0.07-0.58v-0.5
		l-0.07-0.58h-10.22c-3.59,0-3.72,0.12-7.36,11.27c-4.28,12.84-5.19,16.94-5.56,24.49c-0.25-5.32-0.77-8.64-1.98-13.12
		c-1.21-4.41-3.98-12.91-5.82-18.03c-1.46-3.96-2.18-4.6-5.06-4.6h-10.87l-0.07,0.58v0.5l-0.06,0.58l-0.32,3.4l-0.32,3.38l-0.26,3.4
		c-0.12,2.11-0.51,5.7-0.83,10.35c-0.57,7.69-0.7,10.57-1.15,20.48H601.1z"/>
	<polygon class="st4" points="659.85,286.38 687.48,286.38 687.48,277.94 669.58,277.94 669.58,268.91 686.66,268.91 686.66,260.48 
		669.58,260.48 669.58,252.29 687.1,252.29 687.1,243.84 659.85,243.84 	"/>
	<path class="st4" d="M702.87,286.38h9.02v-21.42c0-3.4-0.32-6.1-1.46-11.78c2.29,5.38,3.45,7.73,5.56,10.93l13.24,20.15
		c0.95,1.49,2.18,2.12,4.03,2.12h8.13v-42.66h-9.02v21.44c0,3.38,0.33,6.07,1.47,11.77c-2.3-5.38-3.46-7.75-5.56-10.94l-13.25-20.16
		c-0.96-1.47-2.18-2.11-3.97-2.11h-8.2V286.38z"/>
	<polygon class="st4" points="768.44,286.38 778.37,286.38 778.37,252.29 791.79,252.29 791.79,243.84 754.95,243.84 754.95,252.29 
		768.44,252.29 	"/>
	<path class="st4" d="M171.1,148.16c0,10.63,6.26,17.32,17,18.48c9,0.97,23.62-0.7,32.7-1.76V60.29h32.17v127.92
		c-23.85,4.92-56.96,9.27-81.86,3.97c-19.26-4.11-30.09-15.94-31.19-35.78L140,60.38l30.91-0.09L171.1,148.16z"/>
	<path class="st4" d="M413.15,73.2c0.06-1.49,1.67-3.53,3.1-4.25c19.51-9.82,40.12-14.22,61.79-10.27
		c17.88,3.25,26.7,12.56,27.12,30.61l0.22,101.11c-23.98,2.55-47.11,6.7-70.66,3.32c-22.52-3.22-31.78-17.17-29.69-40.19
		c2.09-23.09,14.4-34.55,41.44-40.53c9.84-2.18,19.93-3.26,29.77-4.82c2.84-17.5-3.93-26.4-20.79-24.5
		c-11.73,1.32-23.08,6.14-34.55,9.57c-2.43,0.73-4.63,2.25-7.89,3.89L413.15,73.2z M477.01,132.33c-12.66,1.11-24.43,1.63-34.9,7.86
		c-6.93,4.12-9.75,12.21-7.59,20.22c1.94,7.21,7.64,10.06,14.21,10.22c8.15,0.2,16.36-0.67,24.5-1.47c1.36-0.13,3.59-2.26,3.62-3.52
		L477.01,132.33z"/>
	<path class="st4" d="M385.62,66.34l-0.07,24.71c-29.64-15.2-55.22-5.98-64.95,6.26c-12,15.09-12.83,39.95-1.42,55.71
		c12.76,17.64,34.27,20.11,68.39,7.39l-0.13,25.04l-2.82,2.33c-24.64,12.85-71.44,12.18-92.1-15.2
		c-17.84-23.65-18.87-49.94-7.48-76.27c10.99-25.41,32.52-36.66,59.34-38.69c12.19-0.92,24.13,0.24,35.65,4.83L385.62,66.34z"/>
	<rect x="757.83" class="st4" width="32.58" height="33.8"/>
	<rect x="757.89" y="60.36" class="st4" width="32.52" height="132.69"/>
	<path class="st4" d="M533.64,192.31V68.21c112.65-37.78,112.65,33.42,112.65,33.42v90.68h-31.93v-88.48
		c0-36.71-48.9-14.93-48.9-14.93v103.41H533.64z"/>
	<path class="st4" d="M614.45,192.31V68.21C727.1,30.43,727.1,101.63,727.1,101.63v90.68h-31.93v-88.48
		c0-36.71-48.91-14.93-48.91-14.93v103.41H614.45z"/>
	<path class="st4" d="M9,85.42V60.29h107.03c0,0,0.58,19.03-3.3,25.5c-3.88,6.47-75.47,80.08-75.47,80.08h77.12v26.43H0v-14.36
		c0-15.48,12.63-25.9,12.63-25.9l65.34-66.64H9z"/>
	<path class="st4" d="M834.49,192.9c-2.56,0-4.96-0.48-7.19-1.47c-2.23-0.96-4.18-2.29-5.86-3.95c-1.66-1.67-2.99-3.62-3.95-5.86
		c-0.98-2.24-1.47-4.65-1.47-7.2c0-2.54,0.48-4.91,1.47-7.15c0.96-2.23,2.3-4.18,3.95-5.84c1.68-1.64,3.63-2.97,5.86-3.93
		c2.23-0.96,4.63-1.47,7.19-1.47c2.53,0,4.91,0.5,7.15,1.47c2.23,0.96,4.18,2.29,5.86,3.93c1.66,1.66,2.97,3.61,3.93,5.84
		c0.97,2.23,1.43,4.61,1.43,7.15c0,2.55-0.46,4.95-1.43,7.2c-0.96,2.23-2.27,4.18-3.93,5.86c-1.68,1.66-3.62,2.99-5.86,3.95
		C839.4,192.42,837.01,192.9,834.49,192.9 M834.49,190.48c2.23,0,4.3-0.43,6.21-1.23c1.89-0.83,3.53-1.96,4.88-3.41
		c1.37-1.45,2.43-3.15,3.22-5.09c0.77-1.93,1.16-4.04,1.16-6.3c0-2.23-0.38-4.34-1.16-6.28c-0.79-1.95-1.85-3.62-3.22-5.05
		c-1.35-1.43-2.99-2.55-4.88-3.38c-1.91-0.83-3.97-1.25-6.21-1.25c-2.23,0-4.3,0.43-6.23,1.25c-1.91,0.83-3.55,1.95-4.93,3.38
		c-1.37,1.43-2.45,3.1-3.22,5.05c-0.79,1.95-1.18,4.05-1.18,6.28c0,2.26,0.39,4.38,1.18,6.3c0.77,1.95,1.85,3.64,3.22,5.09
		c1.39,1.45,3.03,2.58,4.93,3.41C830.19,190.05,832.25,190.48,834.49,190.48z M843.68,184.73h-3.01l-5.9-9.49h-4.61v9.49h-2.52
		v-20.55h8.98c2.72,0,4.62,0.48,5.68,1.45c1.08,0.98,1.6,2.32,1.6,3.99c0,1-0.15,1.87-0.48,2.58c-0.33,0.71-0.77,1.27-1.35,1.72
		c-0.6,0.44-1.27,0.77-2.08,0.98c-0.79,0.21-1.64,0.33-2.55,0.34L843.68,184.73z M834.01,173.26h2.33c0.85,0,1.64-0.1,2.35-0.29
		c0.73-0.19,1.33-0.56,1.81-1.08c0.46-0.5,0.69-1.29,0.69-2.33c0-0.81-0.15-1.45-0.46-1.91c-0.31-0.48-0.7-0.83-1.18-1.08
		c-0.5-0.23-1.04-0.4-1.65-0.48c-0.62-0.08-1.24-0.12-1.85-0.12h-5.88v7.29H834.01z"/>
</g>
</svg>
